<?xml version="1.0" ?><svg height="24.0px" id="SVGRoot" version="1.1" viewBox="0 0 24.0 24.0" width="24.0px" xmlns="http://www.w3.org/2000/svg" xmlns:cc="http://creativecommons.org/ns#" xmlns:dc="http://purl.org/dc/elements/1.1/" xmlns:inkscape="http://www.inkscape.org/namespaces/inkscape" xmlns:rdf="http://www.w3.org/1999/02/22-rdf-syntax-ns#" xmlns:sodipodi="http://sodipodi.sourceforge.net/DTD/sodipodi-0.dtd" xmlns:svg="http://www.w3.org/2000/svg"><defs id="defs2"/><g id="layer1"><path d="M 20.029297 3 A 1 1 0 0 0 19.292969 3.2929688 L 17.257812 5.328125 C 15.687708 4.5455983 13.912737 4 12 4 C 8.6666667 4 5.7335794 5.6316279 3.6191406 7.3496094 C 2.5619212 8.2086001 1.7059096 9.0941755 1.09375 9.859375 C 0.78767021 10.241975 0.54228306 10.592509 0.35742188 10.916016 C 0.17256067 11.239523 3.7007434e-17 11.458333 0 12 C 0 12.541667 0.17256067 12.760477 0.35742188 13.083984 C 0.54228307 13.407491 0.78767021 13.758025 1.09375 14.140625 C 1.7059096 14.905824 2.5619212 15.7914 3.6191406 16.650391 C 4.0317573 16.985642 4.4832215 17.313668 4.9550781 17.630859 L 3.2929688 19.292969 A 1 1 0 0 0 3.2929688 20.707031 A 1 1 0 0 0 4.7070312 20.707031 L 6.7421875 18.671875 C 8.3122921 19.454402 10.087263 20 12 20 C 15.333333 20 18.266421 18.368372 20.380859 16.650391 C 21.438079 15.7914 22.29409 14.905824 22.90625 14.140625 C 23.21233 13.758025 23.457717 13.407491 23.642578 13.083984 C 23.827439 12.760477 24 12.541667 24 12 C 24 11.458333 23.827439 11.239523 23.642578 10.916016 C 23.457717 10.592509 23.21233 10.241975 22.90625 9.859375 C 22.29409 9.0941755 21.438079 8.2086001 20.380859 7.3496094 C 19.968243 7.0143584 19.516778 6.6863317 19.044922 6.3691406 L 20.707031 4.7070312 A 1 1 0 0 0 20.707031 3.2929688 A 1 1 0 0 0 20.029297 3 z M 12 6 C 13.296769 6 14.567291 6.3273006 15.75 6.8359375 L 12.068359 10.517578 A 2 2 0 0 1 12 10 A 2 2 0 0 1 13.177734 8.1777344 A 4 4 0 0 0 12 8 A 4 4 0 0 0 11.939453 8 A 4 4 0 0 0 8 12 A 4 4 0 0 0 8.5546875 14.03125 L 6.3984375 16.1875 C 5.8572135 15.84669 5.3474521 15.478716 4.8808594 15.099609 C 3.9380788 14.3336 3.1690904 13.531676 2.65625 12.890625 C 2.3998298 12.5701 2.2077169 12.287821 2.0957031 12.091797 C 2.0732826 12.052561 2.073845 12.034775 2.0605469 12 C 2.073845 11.965225 2.0732826 11.947439 2.0957031 11.908203 C 2.2077169 11.712179 2.3998298 11.4299 2.65625 11.109375 C 3.1690904 10.468324 3.9380788 9.6663999 4.8808594 8.9003906 C 6.7664206 7.3683721 9.3333333 6 12 6 z M 17.601562 7.8125 C 18.142787 8.1533101 18.652548 8.5212841 19.119141 8.9003906 C 20.061921 9.6663999 20.83091 10.468324 21.34375 11.109375 C 21.60017 11.4299 21.792283 11.712179 21.904297 11.908203 C 21.926717 11.947439 21.926155 11.965225 21.939453 12 C 21.926155 12.034775 21.926717 12.052561 21.904297 12.091797 C 21.792283 12.287821 21.60017 12.5701 21.34375 12.890625 C 20.83091 13.531676 20.061921 14.3336 19.119141 15.099609 C 17.233579 16.631628 14.666667 18 12 18 C 10.703231 18 9.4327086 17.672699 8.25 17.164062 L 9.96875 15.445312 A 4 4 0 0 0 12 16 A 4 4 0 0 0 16 12 A 4 4 0 0 0 15.822266 10.824219 A 2 2 0 0 1 14 12 A 2 2 0 0 1 13.482422 11.931641 L 17.601562 7.8125 z " id="circle2141" style="fill:#000000;stroke:none;stroke-width:2;stroke-linecap:round;stroke-linejoin:round;stroke-miterlimit:4;stroke-dasharray:none"/></g></svg>